<svg width="51" height="58" viewBox="0 0 51 58" fill="none" xmlns="http://www.w3.org/2000/svg">
<g filter="url(#filter0_f)">
<path d="M26.6328 56.3516L14.9609 55.9648H6.06641C4.84766 55.9648 3.82812 55.7656 3.00781 55.3672C2.1875 54.9453 1.77734 54.4297 1.77734 53.8203C1.77734 52.6953 1.95312 51.9102 2.30469 51.4648C3.10156 51.6992 3.94531 51.8164 4.83594 51.8164C5.72656 51.8164 6.45312 51.7578 7.01562 51.6406C7.60156 51.5234 8.11719 51.2773 8.5625 50.9023C9.59375 50.0586 10.1094 48.5938 10.1094 46.5078V10.6836C10.1094 8.50391 8.78516 7.14453 6.13672 6.60547C4.44922 6.25391 3.35938 5.87891 2.86719 5.48047C2.39844 5.05859 2.16406 4.60156 2.16406 4.10938C2.16406 3.03125 2.35156 2.30469 2.72656 1.92969C3.14844 2.04687 3.54688 2.10547 3.92188 2.10547C3.92188 2.10547 7.40234 2.10547 14.3633 2.10547C15.4414 2.10547 16.8945 2.04687 18.7227 1.92969C20.5742 1.8125 23.1406 1.75391 26.4219 1.75391C29.7266 1.75391 32.6797 2.05859 35.2812 2.66797C37.9062 3.27734 40.0625 4.13281 41.75 5.23438C44.9844 7.36719 46.6016 10.3672 46.6016 14.2344C46.6016 18.6406 44.75 22.2031 41.0469 24.9219C39.6641 25.9297 37.8945 26.7969 35.7383 27.5234C42.6523 28.0859 47.0938 30.7344 49.0625 35.4688C49.6719 36.9922 49.9766 38.8086 49.9766 40.918C49.9766 43.0039 49.4961 45.0312 48.5352 47C47.5742 48.9453 46.1211 50.6094 44.1758 51.9922C40.1445 54.8984 34.2969 56.3516 26.6328 56.3516ZM18.3008 26.1172L23.6094 26.1523C24.6641 26.1523 25.918 26.1523 27.3711 26.1523C28.8477 26.1523 30.2891 25.8945 31.6953 25.3789C33.1016 24.8398 34.2734 24.125 35.2109 23.2344C37.1328 21.4062 38.0938 19.0625 38.0938 16.2031C38.0938 12.9453 37.2969 10.5547 35.7031 9.03125C33.8281 7.17969 30.582 6.25391 25.9648 6.25391C22.8242 6.25391 20.8672 6.54687 20.0938 7.13281C19.3438 7.71875 18.8516 8.41016 18.6172 9.20703C18.4062 9.98047 18.3008 11 18.3008 12.2656V26.1172ZM26.7734 30.793C22.9531 30.793 20.1289 30.8164 18.3008 30.8633V47.5273C18.3008 49.8945 19.8477 51.2188 22.9414 51.5C23.9023 51.5703 25.2383 51.6055 26.9492 51.6055C28.6602 51.6055 30.4531 51.4297 32.3281 51.0781C34.2031 50.7266 35.8203 50.1289 37.1797 49.2852C40.0156 47.5039 41.4336 44.6797 41.4336 40.8125C41.4336 34.1328 36.5469 30.793 26.7734 30.793Z" fill="#7E7E7E" fill-opacity="0.38"/>
</g>
<defs>
<filter id="filter0_f" x="0.777344" y="0.753906" width="50.1992" height="56.5977" filterUnits="userSpaceOnUse" color-interpolation-filters="sRGB">
<feFlood flood-opacity="0" result="BackgroundImageFix"/>
<feBlend mode="normal" in="SourceGraphic" in2="BackgroundImageFix" result="shape"/>
<feGaussianBlur stdDeviation="0.5" result="effect1_foregroundBlur"/>
</filter>
</defs>
</svg>
