<svg width="47" height="57" viewBox="0 0 47 57" fill="none" xmlns="http://www.w3.org/2000/svg">
<g filter="url(#filter0_f)">
<path d="M45.7422 45.0664C45.7422 50.3398 45.0391 53.9844 43.6328 56H5.27734C3.42578 56 2.14844 55.5312 1.44531 54.5938C1.21094 54.2656 1.09375 53.9023 1.09375 53.5039C1.09375 52.6133 1.28125 51.9336 1.65625 51.4648C2.45312 51.6992 3.49609 51.8164 4.78516 51.8164C7.66797 51.8164 9.10938 50.0469 9.10938 46.5078V10.4023C9.10938 8.78516 8.42969 7.69531 7.07031 7.13281C6.67188 6.94531 6.17969 6.76953 5.59375 6.60547L3.83594 6.14844C2.71094 5.86719 2.00781 5.52734 1.72656 5.12891C1.46875 4.70703 1.33984 4.28516 1.33984 3.86328C1.33984 2.97266 1.52734 2.29297 1.90234 1.82422C2.44141 2.01172 3.60156 2.10547 5.38281 2.10547H20.7109C21.9297 2.10547 22.9023 2.30469 23.6289 2.70312C24.3555 3.07813 24.7188 3.78125 24.7188 4.8125C24.7188 5.60938 24.543 6.20703 24.1914 6.60547C23.3008 6.37109 22.4453 6.25391 21.625 6.25391C20.8281 6.25391 20.1953 6.34766 19.7266 6.53516C19.2812 6.69922 18.8828 6.99219 18.5312 7.41406C17.8281 8.30469 17.4531 9.76953 17.4062 11.8086V47.3516C17.4531 48.9922 17.9336 50.0938 18.8477 50.6562C19.6211 51.1484 21.0391 51.3945 23.1016 51.3945L25.7383 51.3594L28.7617 51.3242C33.8711 51.3242 37.2109 50.1875 38.7812 47.9141C39.5547 46.7891 40.0703 45.3828 40.3281 43.6953C40.6094 41.9844 40.8555 40.0039 41.0664 37.7539C41.4414 37.5195 41.9453 37.4023 42.5781 37.4023C43.7734 37.4023 44.582 37.543 45.0039 37.8242C45.4961 39.7461 45.7422 42.1602 45.7422 45.0664Z" fill="#7E7E7E" fill-opacity="0.38"/>
</g>
<defs>
<filter id="filter0_f" x="0.09375" y="0.824219" width="46.6484" height="56.1758" filterUnits="userSpaceOnUse" color-interpolation-filters="sRGB">
<feFlood flood-opacity="0" result="BackgroundImageFix"/>
<feBlend mode="normal" in="SourceGraphic" in2="BackgroundImageFix" result="shape"/>
<feGaussianBlur stdDeviation="0.5" result="effect1_foregroundBlur"/>
</filter>
</defs>
</svg>
