<svg width="8" height="8" viewBox="0 0 8 8" fill="none" xmlns="http://www.w3.org/2000/svg">
<g clip-path="url(#clip0)">
<path d="M5.35473 4.00079L7.71952 1.63619C8.09369 1.26202 8.09369 0.655446 7.71952 0.281463C7.34573 -0.092519 6.73877 -0.092519 6.36498 0.281463L4.0002 2.64644L1.63541 0.281463C1.26162 -0.092519 0.654665 -0.092519 0.280874 0.281463C-0.0932993 0.655637 -0.0932993 1.26221 0.280874 1.63619L2.64547 4.00079L0.280874 6.36538C-0.0932993 6.73956 -0.0932993 7.34613 0.280874 7.72011C0.467674 7.90729 0.7131 8.0006 0.958142 8.0006C1.20299 8.0006 1.44861 7.90729 1.63541 7.72011L4.0002 5.35551L6.36498 7.7203C6.55197 7.90748 6.79721 8.00079 7.04225 8.00079C7.28729 8.00079 7.53272 7.90748 7.71952 7.7203C8.09369 7.34613 8.09369 6.73956 7.71952 6.36557L5.35473 4.00079Z" fill="#FF6F77"/>
</g>
<defs>
<clipPath id="clip0">
<rect width="8" height="8" fill="white"/>
</clipPath>
</defs>
</svg>
