<svg width="150" height="150" viewBox="0 0 150 150" fill="none" xmlns="http://www.w3.org/2000/svg">
<g filter="url(#filter0_b)">
<path d="M0 150C0 130.302 3.87986 110.796 11.4181 92.5975C18.9563 74.3986 30.0052 57.8628 43.934 43.934C57.8628 30.0052 74.3987 18.9563 92.5975 11.4181C110.796 3.87986 130.302 -8.61039e-07 150 0L150 22.5C133.256 22.5 116.677 25.7979 101.208 32.2054C85.7389 38.6128 71.6834 48.0044 59.8439 59.8439C48.0044 71.6834 38.6128 85.7388 32.2054 101.208C25.7979 116.677 22.5 133.256 22.5 150H0Z" fill="#072E93"/>
<path d="M0 150C0 130.302 3.87986 110.796 11.4181 92.5975C18.9563 74.3986 30.0052 57.8628 43.934 43.934C57.8628 30.0052 74.3987 18.9563 92.5975 11.4181C110.796 3.87986 130.302 -8.61039e-07 150 0L150 22.5C133.256 22.5 116.677 25.7979 101.208 32.2054C85.7389 38.6128 71.6834 48.0044 59.8439 59.8439C48.0044 71.6834 38.6128 85.7388 32.2054 101.208C25.7979 116.677 22.5 133.256 22.5 150H0Z" fill="#072E93"/>
<path d="M0 150C0 130.302 3.87986 110.796 11.4181 92.5975C18.9563 74.3986 30.0052 57.8628 43.934 43.934C57.8628 30.0052 74.3987 18.9563 92.5975 11.4181C110.796 3.87986 130.302 -8.61039e-07 150 0L150 22.5C133.256 22.5 116.677 25.7979 101.208 32.2054C85.7389 38.6128 71.6834 48.0044 59.8439 59.8439C48.0044 71.6834 38.6128 85.7388 32.2054 101.208C25.7979 116.677 22.5 133.256 22.5 150H0Z" fill="#A80303"/>
</g>
<defs>
<filter id="filter0_b" x="-4" y="-4" width="158" height="158" filterUnits="userSpaceOnUse" color-interpolation-filters="sRGB">
<feFlood flood-opacity="0" result="BackgroundImageFix"/>
<feGaussianBlur in="BackgroundImage" stdDeviation="2"/>
<feComposite in2="SourceAlpha" operator="in" result="effect1_backgroundBlur"/>
<feBlend mode="normal" in="SourceGraphic" in2="effect1_backgroundBlur" result="shape"/>
</filter>
</defs>
</svg>
