<svg width="247" height="281" viewBox="0 0 247 281" fill="none" xmlns="http://www.w3.org/2000/svg">
<path d="M26.8995 151.278L22 149.281L27.7641 158.693L32.6635 180.083L36.122 188.639L44.4799 194.628L56.2962 198.906H66.9597L82.8109 196.91L90.5924 194.628L71.2828 192.347C68.785 192.157 62.8673 191.662 59.1783 191.206C54.567 190.636 50.5321 187.498 48.2265 185.502C46.382 183.905 44.3838 180.083 43.6153 178.372L41.886 173.523L40.445 169.245L37.563 163.827L32.0871 156.411L26.8995 151.278Z" fill="#C4C4C4"/>
<path d="M150.827 211.455C149.674 208.033 146.504 189.115 145.063 180.083L144.198 190.636L143.046 212.311L145.063 233.416L150.827 243.683L158.32 246.535L191.752 270.492C189.446 266.119 184.201 256.004 181.665 250.528C178.495 243.683 166.39 232.56 159.761 226.856C153.133 221.152 152.268 215.733 150.827 211.455Z" fill="#C4C4C4"/>
<path d="M67.5361 115.057C62.0026 110.038 60.0428 91.2904 59.7546 82.5442C60.7153 85.7765 63.1554 93.4389 65.2305 98.2303C67.3056 103.022 72.2435 106.311 74.453 107.357C77.239 108.498 84.079 111.121 89.1514 112.49C95.4919 114.202 98.3739 116.483 100.103 117.339C101.487 118.023 104.907 118.575 106.444 118.765H115.666L121.43 119.62C119.125 121.142 114.398 124.241 113.937 124.469C113.36 124.754 106.732 127.606 94.3391 127.606C81.9463 127.606 74.453 121.332 67.5361 115.057Z" fill="#C4C4C4"/>
<path d="M165.725 94.3305C164.867 94.3048 164.114 94.2717 163.508 94.2375C164.058 94.0819 164.817 94.1279 165.725 94.3305C169.628 94.4479 175.678 94.4154 179.647 93.6671C185.7 92.5263 198.092 87.6779 211.35 92.2411C220.609 95.4281 223.454 100.227 228.066 106.786C231.247 111.313 227.105 108.878 225.183 106.786C223.646 104.98 219.362 102.052 214.52 104.79C208.468 108.212 201.551 111.92 198.092 111.35C194.634 110.779 188.005 108.498 185.411 105.646C183.171 103.182 171.473 95.6139 165.725 94.3305Z" fill="black" fill-opacity="0.15"/>
<path d="M146.504 24.9336V102.508C145.735 120.191 151.922 155.784 182.818 156.697C213.713 157.609 227.585 134.641 230.659 123.043C231.055 120.188 231.168 116.323 230.659 112.094M230.659 112.094C229.44 101.96 224.652 89.7287 211.638 84.2555C193.193 76.498 180.896 78.3613 177.054 80.2626C177.63 81.2133 177.745 84.0273 173.595 87.6779C169.445 91.3284 163.796 93.7622 161.491 94.5227C166.87 95.6635 178.667 98.8578 182.818 102.508C188.005 107.072 195.499 113.916 203.568 110.494C211.638 107.072 220.86 96.5816 230.659 112.094Z" stroke="black" stroke-width="5"/>
<path d="M144.198 24.9336V171.812M144.198 171.812V196.625C143.045 204.991 142.008 229.936 147.08 237.694C153.421 247.391 151.403 241.972 161.202 248.246C169.041 253.266 190.407 269.541 191.752 271.633C191.752 266.499 190.368 252.752 187.141 242.257C183.106 229.138 184.547 224.575 171.289 216.018C158.032 207.462 151.115 202.614 144.198 171.812Z" stroke="black" stroke-width="5"/>
<path d="M141.892 24.9336V131.028C141.508 143.958 138.434 166.108 131.517 178.942C126.05 189.086 115.378 199.762 100.968 196.91M100.968 196.91C86.5576 194.058 72.1474 198.621 62.9249 199.192C53.7024 199.762 45.0563 195.769 39.8686 192.062C34.681 188.354 34.5309 185.92 30.9343 170.101C28.3405 158.693 29.2051 161.545 22.5763 149.281C29.1089 149.662 36.41 150.707 47.9382 155.556C54.7317 158.413 59.9762 169.911 65.8068 178.942C72.4355 189.21 85.9812 193.488 100.968 196.91Z" stroke="black" stroke-width="5"/>
<path d="M141.893 86.5371C139.971 73.7981 129.673 47.4074 103.85 43.7569C78.0268 40.1063 63.8856 62.0097 60.0429 73.4178C59.9095 74.6384 59.8011 75.9778 59.7268 77.4106M59.7268 77.4106C58.945 92.4939 61.9536 117.933 79.6407 124.184C99.008 131.028 110.19 125.895 110.19 125.895L121.142 120.191C122.487 117.719 115.954 118.48 109.037 111.635C100.391 103.079 98.6622 94.5227 83.0992 96.2339C67.5362 97.9451 64.022 91.1003 59.7268 77.4106Z" stroke="black" stroke-width="5"/>
<path d="M162.355 94.2375C166.87 94.5227 177.745 94.5797 185.123 92.5263C194.346 89.9595 215.961 84.5406 228.93 108.783" stroke="black"/>
<path d="M60.0428 79.1218C61.2359 85.7128 63.8081 103.164 74.7412 107.357C88.4077 112.598 92.3681 112.48 99.5267 116.768C105.254 120.199 119.589 117.953 120.566 119.62" stroke="black"/>
<path d="M145.063 177.231C145.543 188.069 149.956 217.133 157.456 224.289C173.595 239.69 178.494 241.401 191.464 269.922" stroke="black"/>
<path d="M22.5764 148.996C28.3405 150.422 38.8887 162.971 41.8861 173.238C45.6327 186.072 53.7024 191.206 62.9249 191.776C72.1474 192.347 87.7104 193.488 92.8981 195.769" stroke="black"/>
<mask id="path-13-inside-1" fill="white">
<path d="M194.086 224.84C218.783 207.639 236.348 182.01 243.481 152.771C250.614 123.531 246.825 92.6934 232.825 66.051C218.824 39.4085 195.577 18.7955 167.45 8.08486C139.323 -2.62576 108.253 -2.69675 80.0779 7.88525C51.9025 18.4672 28.5611 38.9738 14.4391 65.552C0.317133 92.1302 -3.61325 122.951 3.3864 152.222C10.3861 181.494 27.834 207.202 52.4518 224.517C77.0697 241.831 107.163 249.56 137.078 246.251L136.236 238.638C108.176 241.742 79.9493 234.492 56.8583 218.252C33.7672 202.011 17.4015 177.897 10.8359 150.441C4.27041 122.985 7.95703 94.0758 21.2031 69.146C34.4492 44.2162 56.343 24.9815 82.771 15.0558C109.199 5.13008 138.342 5.19666 164.724 15.243C191.106 25.2893 212.912 44.6239 226.044 69.614C239.176 94.6041 242.731 123.529 236.04 150.955C229.349 178.382 212.873 202.42 189.708 218.555L194.086 224.84Z"/>
</mask>
<path d="M194.086 224.84C218.783 207.639 236.348 182.01 243.481 152.771C250.614 123.531 246.825 92.6934 232.825 66.051C218.824 39.4085 195.577 18.7955 167.45 8.08486C139.323 -2.62576 108.253 -2.69675 80.0779 7.88525C51.9025 18.4672 28.5611 38.9738 14.4391 65.552C0.317133 92.1302 -3.61325 122.951 3.3864 152.222C10.3861 181.494 27.834 207.202 52.4518 224.517C77.0697 241.831 107.163 249.56 137.078 246.251L136.236 238.638C108.176 241.742 79.9493 234.492 56.8583 218.252C33.7672 202.011 17.4015 177.897 10.8359 150.441C4.27041 122.985 7.95703 94.0758 21.2031 69.146C34.4492 44.2162 56.343 24.9815 82.771 15.0558C109.199 5.13008 138.342 5.19666 164.724 15.243C191.106 25.2893 212.912 44.6239 226.044 69.614C239.176 94.6041 242.731 123.529 236.04 150.955C229.349 178.382 212.873 202.42 189.708 218.555L194.086 224.84Z" stroke="black" stroke-width="6" mask="url(#path-13-inside-1)"/>
</svg>
