<svg width="48" height="58" viewBox="0 0 48 58" fill="none" xmlns="http://www.w3.org/2000/svg">
<g filter="url(#filter0_f)">
<path d="M27.3555 56.2812C26.8164 56.0938 25.6562 56 23.875 56H5.80469C4.58594 56 3.61328 55.8125 2.88672 55.4375C2.16016 55.0391 1.79688 54.3242 1.79688 53.293C1.79688 52.543 1.97266 51.9453 2.32422 51.5C3.21484 51.7344 4.07031 51.8516 4.89062 51.8516C5.71094 51.8516 6.35547 51.7695 6.82422 51.6055C7.29297 51.418 7.70312 51.1016 8.05469 50.6562C8.75781 49.7188 9.10938 48.1602 9.10938 45.9805V10.6836C9.10938 8.50391 7.82031 7.14453 5.24219 6.60547C3.625 6.27734 2.57031 5.90234 2.07812 5.48047C1.58594 5.05859 1.33984 4.60156 1.33984 4.10938C1.33984 3.03125 1.52734 2.30469 1.90234 1.92969C2.32422 2.04687 2.71094 2.10547 3.0625 2.10547H11.7812L24.2969 1.75391C35.2656 1.75391 42.2031 4.74219 45.1094 10.7188C46.1641 12.875 46.6914 15.0313 46.6914 17.1875C46.6914 19.3438 46.5391 21.1836 46.2344 22.707C45.9297 24.2305 45.4023 25.7188 44.6523 27.1719C43.9258 28.6016 42.9531 29.9609 41.7344 31.25C40.5156 32.5156 38.9922 33.6289 37.1641 34.5898C33.2031 36.6523 28.1406 37.6836 21.9766 37.6836H20.6406C19.9844 37.6836 19.6562 37.2617 19.6562 36.418C19.6562 34.5664 20.1602 33.5234 21.168 33.2891C29.9805 33.4766 35.3125 30.8516 37.1641 25.4141C37.7266 23.7031 38.0078 21.875 38.0078 19.9297C38.0078 17.9844 37.7969 16.2031 37.375 14.5859C36.9531 12.9453 36.1914 11.4922 35.0898 10.2266C32.6523 7.46094 28.6211 6.07812 22.9961 6.07812C20.7227 6.07812 19.2109 6.57031 18.4609 7.55469C17.7578 8.42188 17.4062 10.1797 17.4062 12.8281V47.9492C17.5234 49.7773 18.9766 50.8906 21.7656 51.2891C24.2734 51.6406 25.832 51.9688 26.4414 52.2734C27.0508 52.5781 27.4492 52.8828 27.6367 53.1875C27.8242 53.4688 27.918 53.8203 27.918 54.2422C27.918 55.1328 27.7305 55.8125 27.3555 56.2812Z" fill="#7E7E7E" fill-opacity="0.38"/>
</g>
<defs>
<filter id="filter0_f" x="0.339844" y="0.753906" width="47.3516" height="56.5273" filterUnits="userSpaceOnUse" color-interpolation-filters="sRGB">
<feFlood flood-opacity="0" result="BackgroundImageFix"/>
<feBlend mode="normal" in="SourceGraphic" in2="BackgroundImageFix" result="shape"/>
<feGaussianBlur stdDeviation="0.5" result="effect1_foregroundBlur"/>
</filter>
</defs>
</svg>
