<svg width="150" height="150" viewBox="0 0 150 150" fill="none" xmlns="http://www.w3.org/2000/svg">
<g filter="url(#filter0_b)">
<path d="M0 0C19.6983 0 39.2037 3.87986 57.4025 11.4181C75.6014 18.9563 92.1372 30.0052 106.066 43.934C119.995 57.8628 131.044 74.3987 138.582 92.5975C146.12 110.796 150 130.302 150 150L127.5 150C127.5 133.256 124.202 116.677 117.795 101.208C111.387 85.7389 101.996 71.6834 90.1561 59.8439C78.3166 48.0044 64.2612 38.6128 48.7921 32.2054C33.3231 25.7979 16.7435 22.5 0 22.5V0Z" fill="#072E93"/>
<path d="M0 0C19.6983 0 39.2037 3.87986 57.4025 11.4181C75.6014 18.9563 92.1372 30.0052 106.066 43.934C119.995 57.8628 131.044 74.3987 138.582 92.5975C146.12 110.796 150 130.302 150 150L127.5 150C127.5 133.256 124.202 116.677 117.795 101.208C111.387 85.7389 101.996 71.6834 90.1561 59.8439C78.3166 48.0044 64.2612 38.6128 48.7921 32.2054C33.3231 25.7979 16.7435 22.5 0 22.5V0Z" fill="#072E93"/>
<path d="M0 0C19.6983 0 39.2037 3.87986 57.4025 11.4181C75.6014 18.9563 92.1372 30.0052 106.066 43.934C119.995 57.8628 131.044 74.3987 138.582 92.5975C146.12 110.796 150 130.302 150 150L127.5 150C127.5 133.256 124.202 116.677 117.795 101.208C111.387 85.7389 101.996 71.6834 90.1561 59.8439C78.3166 48.0044 64.2612 38.6128 48.7921 32.2054C33.3231 25.7979 16.7435 22.5 0 22.5V0Z" fill="#072E93"/>
</g>
<defs>
<filter id="filter0_b" x="-4" y="-4" width="158" height="158" filterUnits="userSpaceOnUse" color-interpolation-filters="sRGB">
<feFlood flood-opacity="0" result="BackgroundImageFix"/>
<feGaussianBlur in="BackgroundImage" stdDeviation="2"/>
<feComposite in2="SourceAlpha" operator="in" result="effect1_backgroundBlur"/>
<feBlend mode="normal" in="SourceGraphic" in2="effect1_backgroundBlur" result="shape"/>
</filter>
</defs>
</svg>
