<svg width="40" height="58" viewBox="0 0 40 58" fill="none" xmlns="http://www.w3.org/2000/svg">
<g filter="url(#filter0_f)">
<path d="M31.1367 16.9414C31.1367 11.5742 29.2266 8.21094 25.4062 6.85156C24.0938 6.38281 22.5586 6.14844 20.8008 6.14844C19.043 6.14844 17.5312 6.34766 16.2656 6.74609C15 7.14453 13.9453 7.68359 13.1016 8.36328C11.3906 9.74609 10.5352 11.5742 10.5352 13.8477C10.5352 17.293 13.0664 20.2344 18.1289 22.6719L22.5234 24.7461C24.6562 25.7305 26.707 26.7383 28.6758 27.7695C30.668 28.7773 32.4258 29.9375 33.9492 31.25C37.3008 34.1094 38.9766 37.6484 38.9766 41.8672C38.9766 46.3906 37.0078 50.0352 33.0703 52.8008C29.3906 55.3789 24.7734 56.668 19.2188 56.668C14.8125 56.668 10.9219 55.9766 7.54688 54.5938C5.0625 53.6094 3.29297 52.2148 2.23828 50.4102C1.69922 49.4961 1.42969 48.3828 1.42969 47.0703C1.42969 44.4453 2.08594 41.9961 3.39844 39.7227C3.84375 39.1836 4.45312 38.9141 5.22656 38.9141C6.72656 38.9141 7.59375 39.3594 7.82812 40.25C8.13281 44.3047 9.375 47.2578 11.5547 49.1094C13.7578 50.9609 16.8281 51.8867 20.7656 51.8867C25.2891 51.8867 28.3242 50.4102 29.8711 47.457C30.4102 46.4258 30.6797 45.2188 30.6797 43.8359C30.6797 42.4297 30.3047 41.1758 29.5547 40.0742C28.8047 38.9727 27.8086 37.9531 26.5664 37.0156C24.668 35.6094 22.1484 34.25 19.0078 32.9375C15.8906 31.625 13.4531 30.4766 11.6953 29.4922C9.96094 28.5078 8.42578 27.3594 7.08984 26.0469C4.18359 23.1875 2.73047 19.6602 2.73047 15.4648C2.73047 11.1758 4.57031 7.74219 8.25 5.16406C11.7891 2.67969 16.3594 1.4375 21.9609 1.4375C29.0625 1.4375 33.7031 2.90234 35.8828 5.83203C36.6797 6.88672 37.0781 8.26953 37.0781 9.98047C37.0781 11.6914 36.9141 13.1797 36.5859 14.4453C36.2812 15.7109 35.9766 16.5312 35.6719 16.9062C35.1562 17.5391 34.2656 17.8555 33 17.8555C31.7578 17.8555 31.1367 17.5508 31.1367 16.9414Z" fill="#7E7E7E" fill-opacity="0.38"/>
</g>
<defs>
<filter id="filter0_f" x="0.429688" y="0.4375" width="39.5469" height="57.2305" filterUnits="userSpaceOnUse" color-interpolation-filters="sRGB">
<feFlood flood-opacity="0" result="BackgroundImageFix"/>
<feBlend mode="normal" in="SourceGraphic" in2="BackgroundImageFix" result="shape"/>
<feGaussianBlur stdDeviation="0.5" result="effect1_foregroundBlur"/>
</filter>
</defs>
</svg>
