<svg width="150" height="149" viewBox="0 0 150 149" fill="none" xmlns="http://www.w3.org/2000/svg">
<path d="M92.5 13.5C86.1 17.5 78.8333 26.1667 76 30C92 30 101.333 36.6667 104 40C108.167 43.3333 117 53.1 119 65.5C121.5 81 116.5 91 115 94C113.5 97 102 113 87 116.5C72 120 57 114.5 50 110C43 105.5 33 95.5 31 75.5C29 55.5 38 40 50 25C59.6 13 80 4 89 0.999995C80.3333 0.499995 60.4 0.299995 50 3.5C37 7.5 20 20.5 11.5 33.5C3 46.5 -1 63 0.999999 84C3 105 20 126 29.5 132.5C39 139 55.5 148.5 76 148C96.5 147.5 114 138 125 128.5C136 119 146 106 149 86C152 66 146.5 47 136 30C127.6 16.4 112.167 8.66666 105.5 6.5C103.833 7.16666 98.9 9.5 92.5 13.5Z" fill="#FF9500"/>
</svg>
