<svg width="62" height="58" viewBox="0 0 62 58" fill="none" xmlns="http://www.w3.org/2000/svg">
<g filter="url(#filter0_f)">
<path d="M39.2656 51.8516C40.25 52.0156 40.9883 52.0977 41.4805 52.0977C41.9727 52.0977 42.4531 52.0508 42.9219 51.957C43.4141 51.8398 43.8477 51.6641 44.2227 51.4297C45.0664 50.9141 45.4883 50.1055 45.4883 49.0039C45.4883 48.0898 45.207 47.0703 44.6445 45.9453L41.3398 37.7539H19.0859L15.1484 47.7383C14.7734 48.6523 14.5859 49.3203 14.5859 49.7422C14.5859 50.1406 14.6445 50.4453 14.7617 50.6562C14.9023 50.8438 15.1016 51.0078 15.3594 51.1484C15.6406 51.2891 15.9805 51.4062 16.3789 51.5L17.8203 51.8867C19.3672 52.1445 20.3633 52.3789 20.8086 52.5898C21.7227 53.0352 22.1797 53.6914 22.1797 54.5586C22.1797 55.1914 22.0039 55.7305 21.6523 56.1758C21.207 56.0586 20.7969 56 20.4219 56H6.11328C2.99609 56 1.4375 55.1445 1.4375 53.4336C1.4375 52.6367 1.61328 51.9922 1.96484 51.5C2.83203 51.7344 3.55859 51.8516 4.14453 51.8516C4.75391 51.8516 5.25781 51.7578 5.65625 51.5703C6.07812 51.3828 6.47656 51.0664 6.85156 50.6211C7.48438 49.8477 8.22266 48.3008 9.06641 45.9805L26.4336 3.93359C26.9258 2.80859 28.3203 2.03516 30.6172 1.61328C31.25 1.49609 31.918 1.4375 32.6211 1.4375C34.0508 1.4375 34.9297 1.82422 35.2578 2.59766L38.7734 11.3867C45.5469 27.3711 49.4609 36.6992 50.5156 39.3711L53.6797 47.668C54.3125 49.4727 54.8398 50.5859 55.2617 51.0078C55.6836 51.4297 56.1406 51.7227 56.6328 51.8867C57.125 52.0508 57.6289 52.1914 58.1445 52.3086C58.6836 52.4023 59.1523 52.5312 59.5508 52.6953C60.4414 53.0938 60.8867 53.7031 60.8867 54.5234C60.8867 55.1562 60.7109 55.6953 60.3594 56.1406C59.9141 56.0234 59.5156 55.9648 59.1641 55.9648H42.3945C41.1992 55.9648 40.2617 55.8242 39.582 55.543C38.9258 55.2383 38.5977 54.7812 38.5977 54.1719C38.5977 53.1172 38.8203 52.3438 39.2656 51.8516ZM39.3008 32.7617L30.0898 9.98047L21.0547 32.7617H39.3008Z" fill="#7E7E7E" fill-opacity="0.38"/>
</g>
<defs>
<filter id="filter0_f" x="0.4375" y="0.4375" width="61.4492" height="56.7383" filterUnits="userSpaceOnUse" color-interpolation-filters="sRGB">
<feFlood flood-opacity="0" result="BackgroundImageFix"/>
<feBlend mode="normal" in="SourceGraphic" in2="BackgroundImageFix" result="shape"/>
<feGaussianBlur stdDeviation="0.5" result="effect1_foregroundBlur"/>
</filter>
</defs>
</svg>
