<svg width="46" height="58" viewBox="0 0 46 58" fill="none" xmlns="http://www.w3.org/2000/svg">
<g filter="url(#filter0_f)">
<path d="M37.0078 17.3281C37.1016 16.6719 37.1484 15.7109 37.1484 14.4453C37.1484 13.1797 36.9023 12.0312 36.4102 11C35.918 9.94531 35.25 9.125 34.4062 8.53906C32.9297 7.53125 30.7031 7.02734 27.7266 7.02734C24.7734 7.02734 22.1602 7.56641 19.8867 8.64453C17.6367 9.69922 15.75 11.1875 14.2266 13.1094C11.1562 16.9766 9.62109 22.2383 9.62109 28.8945C9.62109 35.1992 11.1797 40.2266 14.2969 43.9766C17.5312 47.8906 21.9023 49.8477 27.4102 49.8477C32.8242 49.8477 37.043 48.6641 40.0664 46.2969C40.9805 45.5938 41.8125 44.832 42.5625 44.0117C43.2656 44.2227 43.8398 44.8438 44.2852 45.875C44.4258 46.2266 44.4961 46.6953 44.4961 47.2812C44.4961 47.8438 44.0742 48.6875 43.2305 49.8125C42.4102 50.9141 41.2031 51.9805 39.6094 53.0117C35.8125 55.4961 31.2656 56.7383 25.9688 56.7383C18.375 56.7383 12.3281 54.4297 7.82812 49.8125C3.375 45.2891 1.14844 39.2305 1.14844 31.6367C1.14844 26.9961 1.88672 22.8125 3.36328 19.0859C4.83984 15.3594 6.85547 12.1953 9.41016 9.59375C11.9648 6.96875 14.9414 4.95312 18.3398 3.54688C21.7617 2.14062 25.0781 1.4375 28.2891 1.4375C31.5234 1.4375 34.1133 1.70703 36.0586 2.24609C38.0039 2.78516 39.6211 3.52344 40.9102 4.46094C43.4883 6.38281 44.7773 8.9375 44.7773 12.125C44.7773 14.5625 43.875 16.2852 42.0703 17.293C41.4609 17.6445 40.8047 17.8203 40.1016 17.8203C38.6484 17.8203 37.6172 17.6562 37.0078 17.3281Z" fill="#7E7E7E" fill-opacity="0.38"/>
</g>
<defs>
<filter id="filter0_f" x="0.148438" y="0.4375" width="45.6289" height="57.3008" filterUnits="userSpaceOnUse" color-interpolation-filters="sRGB">
<feFlood flood-opacity="0" result="BackgroundImageFix"/>
<feBlend mode="normal" in="SourceGraphic" in2="BackgroundImageFix" result="shape"/>
<feGaussianBlur stdDeviation="0.5" result="effect1_foregroundBlur"/>
</filter>
</defs>
</svg>
