<svg width="45" height="58" viewBox="0 0 45 58" fill="none" xmlns="http://www.w3.org/2000/svg">
<g filter="url(#filter0_f)">
<path d="M28.0586 56.2812C27.4961 56.0938 26.3359 56 24.5781 56H5.13672C3.91797 56 2.93359 55.8125 2.18359 55.4375C1.45703 55.0391 1.09375 54.3242 1.09375 53.293C1.09375 52.5664 1.28125 51.9688 1.65625 51.5C2.5 51.7344 3.33203 51.8516 4.15234 51.8516C4.99609 51.8516 5.6875 51.7695 6.22656 51.6055C6.76562 51.418 7.24609 51.1016 7.66797 50.6562C8.62891 49.6484 9.10938 48.0898 9.10938 45.9805V10.8945C9.10938 8.85547 8.28906 7.55469 6.64844 6.99219C6.17969 6.82812 5.6875 6.6875 5.17188 6.57031C4.67969 6.42969 4.19922 6.30078 3.73047 6.18359C3.28516 6.04297 2.88672 5.89063 2.53516 5.72656C1.73828 5.30469 1.33984 4.73047 1.33984 4.00391C1.33984 3.04297 1.52734 2.35156 1.90234 1.92969C2.30078 2.04687 2.71094 2.10547 3.13281 2.10547H38.7109C40.8203 2.10547 42.1211 2.30469 42.6133 2.70312C43.4805 3.35938 43.9141 4.90625 43.9141 7.34375C43.9141 9.6875 43.7266 11.5625 43.3516 12.9688C42.9766 14.3516 42.6953 15.1953 42.5078 15.5C42.2031 16.0156 41.7578 16.2734 41.1719 16.2734C40.2109 16.2734 39.5195 16.1094 39.0977 15.7812C38.6992 15.4531 38.5 15.2188 38.5 15.0781C38.2656 11.75 37.6562 9.51172 36.6719 8.36328C35.6172 7.09766 33.4961 6.46484 30.3086 6.46484H23.5586C21.0508 6.46484 19.4805 6.6875 18.8477 7.13281C18.2383 7.55469 17.8516 8.05859 17.6875 8.64453C17.5234 9.20703 17.4297 9.93359 17.4062 10.8242V27.0312H19.0586C24.707 27.0312 29.6523 26.5859 33.8945 25.6953C34.7383 26.0469 35.1602 27.3125 35.1602 29.4922C35.1602 30.6172 34.9492 31.6719 34.5273 32.6562C33.0039 32.7969 31.3633 32.8672 29.6055 32.8672C27.8477 32.8672 25.9492 32.7617 23.9102 32.5508L17.4062 31.8477V47.7031C17.4062 49.7188 18.9883 50.9141 22.1523 51.2891C24.7773 51.6172 26.4062 51.9453 27.0391 52.2734C27.6953 52.5781 28.1172 52.8828 28.3047 53.1875C28.4922 53.4688 28.5859 53.8203 28.5859 54.2422C28.5859 55.1094 28.4102 55.7891 28.0586 56.2812Z" fill="#7E7E7E" fill-opacity="0.38"/>
</g>
<defs>
<filter id="filter0_f" x="0.09375" y="0.929688" width="44.8203" height="56.3516" filterUnits="userSpaceOnUse" color-interpolation-filters="sRGB">
<feFlood flood-opacity="0" result="BackgroundImageFix"/>
<feBlend mode="normal" in="SourceGraphic" in2="BackgroundImageFix" result="shape"/>
<feGaussianBlur stdDeviation="0.5" result="effect1_foregroundBlur"/>
</filter>
</defs>
</svg>
