<svg width="2437" height="1060" viewBox="0 0 2437 1060" fill="none" xmlns="http://www.w3.org/2000/svg">
<g filter="url(#filter0_i)">
<path d="M2 1058L39 1026L49 1009C46.3333 1007.33 36.6 1005 19 1009C1.4 1013 21 978 33 960C52.3333 946.333 93.6 917 104 909C117 899 124 887 114 886C106 885.2 158 841 185 819V872C201.333 858.667 234.6 833.8 237 841C240 850 215 900 237 886C254.6 874.8 287.667 840 302 824C308.333 822 321.8 805.6 325 756C329 694 348 619 372 580C391.2 548.8 425.333 657 440 715C447 709.333 461.8 692.4 465 670C469 642 470 620 482 645C494 670 496 687 508 676C520 665 527 647 543 655C559 663 558 686 579 645C595.8 612.2 604.667 595.333 607 591L658 670C664 677.667 676 685.4 676 655C676 617 663 604 676 569C689 534 691 449 706 490C721 531 708 569 731 569C754 569 794 576 808 544C819.2 518.4 832 528 837 536C839 551.333 844.8 572.8 852 536C859.2 499.2 865.667 478 868 472L889 508C892.667 487.333 903 448.6 915 459C930 472 936 534 949 508C962 482 968 393 985 379C1002 365 1005 354 1032 413C1059 472 1065 518 1083 472C1097.4 435.2 1119.67 367.333 1129 338L1181 466C1186.67 462.333 1198.4 450.8 1200 434C1201.6 417.2 1210.67 384.333 1215 370L1238 434C1245.67 436.667 1261.4 432.8 1263 396C1265 350 1261 313 1269 280C1277 247 1297 198 1308 254C1319 310 1350 347 1358 363C1364.4 375.8 1381.33 397.667 1389 407L1425 310C1431.33 327 1447.4 362.8 1461 370C1478 379 1496 367 1499 332C1501.4 304 1496.67 285.667 1494 280L1454 310C1451.33 304.333 1449 287.4 1461 265C1476 237 1509 224 1519 187C1527 157.4 1530.33 133.333 1531 125C1557.33 150.667 1611.4 217.6 1617 280C1624 358 1639 404 1642 396C1644.4 389.6 1658.33 346 1665 325L1686 363H1694C1698 365.333 1704.8 361 1700 325C1695.2 289 1722.67 256 1737 244L1769 265C1773.67 244.667 1785 201.8 1793 193C1801 184.2 1821 212.667 1830 228L1858 202C1863.33 212.667 1874.4 236 1876 244C1877.6 252 1888.67 236.667 1894 228H1909L1936 202L1958 187C1973.67 190.667 2006.8 200.4 2014 210C2023 222 2013 182 2027 174C2038.2 167.6 2058.33 161.333 2067 159L2102 131C2110.67 135 2129.6 147.4 2136 165C2142.4 182.6 2171.33 172.333 2185 165L2195 113C2210.33 127 2246.8 154.2 2270 151C2293.2 147.8 2287 114.333 2281 98L2311 120L2325 82L2352 108L2401 11L2413 50L2434 1" stroke="#131610" stroke-width="5"/>
</g>
<defs>
<filter id="filter0_i" x="0.364624" y="0.0151978" width="2435.93" height="1063.88" filterUnits="userSpaceOnUse" color-interpolation-filters="sRGB">
<feFlood flood-opacity="0" result="BackgroundImageFix"/>
<feBlend mode="normal" in="SourceGraphic" in2="BackgroundImageFix" result="shape"/>
<feColorMatrix in="SourceAlpha" type="matrix" values="0 0 0 0 0 0 0 0 0 0 0 0 0 0 0 0 0 0 127 0" result="hardAlpha"/>
<feOffset dy="4"/>
<feGaussianBlur stdDeviation="2"/>
<feComposite in2="hardAlpha" operator="arithmetic" k2="-1" k3="1"/>
<feColorMatrix type="matrix" values="0 0 0 0 0 0 0 0 0 0 0 0 0 0 0 0 0 0 0.25 0"/>
<feBlend mode="normal" in2="shape" result="effect1_innerShadow"/>
</filter>
</defs>
</svg>
