<svg width="339" height="339" viewBox="0 0 339 339" fill="none" xmlns="http://www.w3.org/2000/svg">
<path d="M65.5 150.5C70.1667 152.333 78.6 161.2 75 182" stroke="#484848" stroke-width="5"/>
<path d="M76 187C69.8744 188.416 58.1483 194.432 60.2485 207.173C62.8738 223.099 61.5612 220.975 76 230" stroke="#484848" stroke-width="8"/>
<path d="M78.5 104.5C69.8333 108.667 57.3 122.6 76.5 145" stroke="#484848" stroke-width="8"/>
<path d="M161.5 131V168.5" stroke="#484848" stroke-width="5"/>
<path d="M178 173V210.5" stroke="#484848" stroke-width="5"/>
<path d="M273.469 110C269.469 110.833 262.069 118 264.469 140" stroke="#484848" stroke-width="5"/>
<path d="M273.469 110C269.469 110.833 262.069 118 264.469 140" stroke="#484848" stroke-width="5"/>
<path d="M273.469 110C269.469 110.833 262.069 118 264.469 140" stroke="#484848" stroke-width="5"/>
<path d="M266.469 194C262.469 194.833 255.069 202 257.469 224" stroke="#484848" stroke-width="5"/>
<path d="M154 214V251.5" stroke="#484848" stroke-width="5"/>
<path d="M259.5 187C268.833 179.5 281.9 160.9 259.5 146.5" stroke="#484848" stroke-width="8"/>
<path d="M259.5 187C268.833 179.5 281.9 160.9 259.5 146.5" stroke="#484848" stroke-width="8"/>
<path d="M259.5 187C268.833 179.5 281.9 160.9 259.5 146.5" stroke="#484848" stroke-width="8"/>
<path d="M200.5 83.5L77 101.5V107L161 135.5L273 112L277.5 107L200.5 83.5Z" fill="#484848"/>
<path d="M62.5 151.5L70.5 155L178 178L281 142.5L265.5 136.5L161.5 163L76.5 140.5C74.5 142.167 69.4 145.9 65 147.5C60.6 149.1 61.5 150.833 62.5 151.5Z" fill="#484848"/>
<path d="M57.5 185.5L73.5 178L179 205L259 183.5C260.333 184.167 264.1 186.4 268.5 190C272.9 193.6 269 195.833 266.5 196.5L153 219.5L57.5 185.5Z" fill="#484848"/>
<path d="M151.404 260L70 231.546L75.46 225.75L155.872 247.881C187.639 238.747 252.663 220.586 258.62 221.007C264.576 221.429 272.022 225.75 275 227.857L151.404 260Z" fill="#484848"/>
</svg>
