<svg width="150" height="150" viewBox="0 0 150 150" fill="none" xmlns="http://www.w3.org/2000/svg">
<g filter="url(#filter0_b)">
<path d="M150 150C130.302 150 110.796 146.12 92.5975 138.582C74.3986 131.044 57.8628 119.995 43.934 106.066C30.0052 92.1372 18.9563 75.6013 11.4181 57.4025C3.87986 39.2037 -8.61039e-07 19.6983 0 -6.55671e-06L22.5 -5.5732e-06C22.5 16.7435 25.7979 33.3231 32.2054 48.7921C38.6128 64.2611 48.0044 78.3166 59.8439 90.1561C71.6834 101.996 85.7388 111.387 101.208 117.795C116.677 124.202 133.256 127.5 150 127.5V150Z" fill="#072E93"/>
<path d="M150 150C130.302 150 110.796 146.12 92.5975 138.582C74.3986 131.044 57.8628 119.995 43.934 106.066C30.0052 92.1372 18.9563 75.6013 11.4181 57.4025C3.87986 39.2037 -8.61039e-07 19.6983 0 -6.55671e-06L22.5 -5.5732e-06C22.5 16.7435 25.7979 33.3231 32.2054 48.7921C38.6128 64.2611 48.0044 78.3166 59.8439 90.1561C71.6834 101.996 85.7388 111.387 101.208 117.795C116.677 124.202 133.256 127.5 150 127.5V150Z" fill="#072E93"/>
<path d="M150 150C130.302 150 110.796 146.12 92.5975 138.582C74.3986 131.044 57.8628 119.995 43.934 106.066C30.0052 92.1372 18.9563 75.6013 11.4181 57.4025C3.87986 39.2037 -8.61039e-07 19.6983 0 -6.55671e-06L22.5 -5.5732e-06C22.5 16.7435 25.7979 33.3231 32.2054 48.7921C38.6128 64.2611 48.0044 78.3166 59.8439 90.1561C71.6834 101.996 85.7388 111.387 101.208 117.795C116.677 124.202 133.256 127.5 150 127.5V150Z" fill="#BEB700"/>
</g>
<defs>
<filter id="filter0_b" x="-4" y="-4" width="158" height="158" filterUnits="userSpaceOnUse" color-interpolation-filters="sRGB">
<feFlood flood-opacity="0" result="BackgroundImageFix"/>
<feGaussianBlur in="BackgroundImage" stdDeviation="2"/>
<feComposite in2="SourceAlpha" operator="in" result="effect1_backgroundBlur"/>
<feBlend mode="normal" in="SourceGraphic" in2="effect1_backgroundBlur" result="shape"/>
</filter>
</defs>
</svg>
