<svg width="57" height="72" viewBox="0 0 57 72" fill="none" xmlns="http://www.w3.org/2000/svg">
<g filter="url(#filter0_f)">
<path d="M13.6094 66.7578C11.5469 66.7578 10.5156 65.75 10.5156 63.7344C10.5156 61.6484 12.4258 60.0664 16.2461 58.9883C26.4648 56.1758 33.7656 52.7188 38.1484 48.6172C42.9297 44.1172 45.3203 37.918 45.3203 30.0195C45.3203 25.7539 44.9219 22.4023 44.125 19.9648C43.3516 17.5273 42.5195 15.582 41.6289 14.1289C40.7617 12.6523 39.6836 11.375 38.3945 10.2969C35.6523 8.04688 32.1836 6.92188 27.9883 6.92188C19.8086 6.92188 14.5234 11.082 12.1328 19.4023C11.3359 22.2383 10.9375 25.6016 10.9375 29.4922C10.9375 38.6328 13.3047 44.6328 18.0391 47.4922C19.1875 48.1953 20.5469 48.6641 22.1172 48.8984C22.6094 49.0391 22.9727 49.3789 23.207 49.918C23.6289 50.8789 23.6992 51.5117 23.418 51.8164C22.832 52.4492 21.625 52.7422 19.7969 52.6953C17.9922 52.625 16.293 52.3203 14.6992 51.7812C13.1055 51.2422 11.6406 50.4922 10.3047 49.5312C8.96875 48.5703 7.78516 47.4453 6.75391 46.1562C5.72266 44.8672 4.84375 43.4375 4.11719 41.8672C2.64062 38.6797 1.90234 35.2695 1.90234 31.6367C1.90234 28.0039 2.27734 24.7812 3.02734 21.9688C3.80078 19.1328 4.84375 16.6133 6.15625 14.4102C7.49219 12.1836 9.05078 10.2617 10.832 8.64453C12.6367 7.00391 14.5703 5.65625 16.6328 4.60156C20.6875 2.49219 24.7305 1.4375 28.7617 1.4375C32.793 1.4375 36.2969 2.03516 39.2734 3.23047C42.2734 4.40234 44.875 6.10156 47.0781 8.32812C51.8594 13.1328 54.25 19.4844 54.25 27.3828C54.25 38.8672 49.9844 47.6094 41.4531 53.6094C37.9141 56.0703 33.707 58.0391 28.832 59.5156L32.1719 60.8516C36.4141 62.4922 39.6719 63.3125 41.9453 63.3125C47.3125 63.3125 51.0391 62 53.125 59.375C53.9219 59.3281 54.5195 59.5859 54.918 60.1484C55.3164 60.7344 55.5156 61.4961 55.5156 62.4336C55.5156 63.3711 55.1992 64.3672 54.5664 65.4219C53.9336 66.5 53.043 67.4375 51.8945 68.2344C49.4102 69.9922 46.3164 70.8711 42.6133 70.8711C40.2695 70.8711 37.9727 70.4375 35.7227 69.5703C33.4727 68.7266 31.7031 68 30.4141 67.3906L26.6172 65.7383C23.8281 64.543 21.8125 63.9453 20.5703 63.9453C19.3516 63.9453 18.3906 64.0273 17.6875 64.1914C16.9844 64.3555 16.3867 64.5664 15.8945 64.8242C15.2617 65.1523 14.5 65.7969 13.6094 66.7578Z" fill="#7E7E7E" fill-opacity="0.38"/>
</g>
<defs>
<filter id="filter0_f" x="0.902344" y="0.4375" width="55.6133" height="71.4336" filterUnits="userSpaceOnUse" color-interpolation-filters="sRGB">
<feFlood flood-opacity="0" result="BackgroundImageFix"/>
<feBlend mode="normal" in="SourceGraphic" in2="BackgroundImageFix" result="shape"/>
<feGaussianBlur stdDeviation="0.5" result="effect1_foregroundBlur"/>
</filter>
</defs>
</svg>
