<svg width="55" height="58" viewBox="0 0 55 58" fill="none" xmlns="http://www.w3.org/2000/svg">
<g filter="url(#filter0_f)">
<path d="M23.5938 56.2812C23.0547 56.0938 21.9062 56 20.1484 56H5.80469C4.58594 56 3.61328 55.8125 2.88672 55.4375C2.16016 55.0391 1.79688 54.3242 1.79688 53.293C1.79688 52.543 1.97266 51.9453 2.32422 51.5C3.21484 51.7344 4.07031 51.8516 4.89062 51.8516C5.71094 51.8516 6.35547 51.7695 6.82422 51.6055C7.29297 51.418 7.70312 51.1016 8.05469 50.6562C8.75781 49.7188 9.10938 48.1602 9.10938 45.9805V10.0156C9.03906 8.375 8.5 7.33203 7.49219 6.88672C7.1875 6.74609 6.76562 6.61719 6.22656 6.5C5.71094 6.38281 5.19531 6.26562 4.67969 6.14844C4.1875 6.00781 3.76562 5.84375 3.41406 5.65625C2.71094 5.28125 2.35938 4.78906 2.35938 4.17969C2.35938 3.07813 2.54688 2.29297 2.92188 1.82422C3.46094 2.01172 4.62109 2.10547 6.40234 2.10547H10.9727L23.3125 1.75391L24.8242 1.71875C32.043 1.71875 37.4453 3.00781 41.0312 5.58594C44.6172 8.14063 46.4102 11.75 46.4102 16.4141C46.4102 19.9062 45.2734 23.1172 43 26.0469C40.4688 29.3047 36.9766 31.5078 32.5234 32.6562C33.7422 33.5 35.125 35.0469 36.6719 37.2969L40.3984 42.7461C43.8906 47.832 46.7852 50.375 49.082 50.375C49.9492 50.375 50.6055 50.293 51.0508 50.1289L51.9297 49.7773C52.1172 49.707 52.3281 49.6719 52.5625 49.6719C52.7969 49.6719 53.043 49.8594 53.3008 50.2344C53.5586 50.5859 53.6875 50.9961 53.6875 51.4648C53.6875 51.9336 53.4883 52.4961 53.0898 53.1523C52.6914 53.7852 52.1289 54.3594 51.4023 54.875C49.7617 56.0703 47.9688 56.668 46.0234 56.668C44.0781 56.668 42.4727 56.3398 41.207 55.6836C39.9648 55.0273 38.8164 54.1719 37.7617 53.1172C36.7305 52.0391 35.7812 50.8203 34.9141 49.4609C34.0703 48.1016 33.2734 46.707 32.5234 45.2773L30.4492 41.0938C28.9727 38.0469 27.7891 36.0898 26.8984 35.2227C26.0312 34.332 25.2344 33.8867 24.5078 33.8867H20.957C20.3711 33.8867 20.0781 33.4648 20.0781 32.6211C20.0781 31.4492 20.5234 30.5352 21.4141 29.8789C21.7188 29.668 22.6328 29.5508 24.1562 29.5273C25.6797 29.4805 27.3906 29.1523 29.2891 28.543C31.2109 27.9336 32.793 27.1016 34.0352 26.0469C36.4492 23.9609 37.6562 21.0312 37.6562 17.2578C37.6562 14.0938 36.6016 11.5039 34.4922 9.48828C32.1016 7.21484 28.7734 6.05469 24.5078 6.00781C21.6953 6.00781 19.8203 6.42969 18.8828 7.27344C17.9453 8.07031 17.4531 9.58203 17.4062 11.8086V47.7031C17.4062 49.5547 17.9219 50.7266 18.9531 51.2188C19.2812 51.3594 19.7148 51.4883 20.2539 51.6055C20.793 51.7227 21.3086 51.8516 21.8008 51.9922C22.3164 52.1094 22.75 52.2617 23.1016 52.4492C23.8047 52.8242 24.1562 53.3281 24.1562 53.9609C24.1562 55.0391 23.9688 55.8125 23.5938 56.2812Z" fill="#7E7E7E" fill-opacity="0.38"/>
</g>
<defs>
<filter id="filter0_f" x="0.796875" y="0.71875" width="53.8906" height="56.9492" filterUnits="userSpaceOnUse" color-interpolation-filters="sRGB">
<feFlood flood-opacity="0" result="BackgroundImageFix"/>
<feBlend mode="normal" in="SourceGraphic" in2="BackgroundImageFix" result="shape"/>
<feGaussianBlur stdDeviation="0.5" result="effect1_foregroundBlur"/>
</filter>
</defs>
</svg>
