<svg width="150" height="150" viewBox="0 0 150 150" fill="none" xmlns="http://www.w3.org/2000/svg">
<g filter="url(#filter0_b)">
<path d="M150 0C150 19.6983 146.12 39.2037 138.582 57.4025C131.044 75.6014 119.995 92.1372 106.066 106.066C92.1372 119.995 75.6013 131.044 57.4025 138.582C39.2037 146.12 19.6983 150 -6.55671e-06 150L-5.5732e-06 127.5C16.7435 127.5 33.3231 124.202 48.7921 117.795C64.2611 111.387 78.3166 101.996 90.1561 90.1561C101.996 78.3166 111.387 64.2612 117.795 48.7921C124.202 33.3231 127.5 16.7435 127.5 0H150Z" fill="#072E93"/>
<path d="M150 0C150 19.6983 146.12 39.2037 138.582 57.4025C131.044 75.6014 119.995 92.1372 106.066 106.066C92.1372 119.995 75.6013 131.044 57.4025 138.582C39.2037 146.12 19.6983 150 -6.55671e-06 150L-5.5732e-06 127.5C16.7435 127.5 33.3231 124.202 48.7921 117.795C64.2611 111.387 78.3166 101.996 90.1561 90.1561C101.996 78.3166 111.387 64.2612 117.795 48.7921C124.202 33.3231 127.5 16.7435 127.5 0H150Z" fill="#072E93"/>
<path d="M150 0C150 19.6983 146.12 39.2037 138.582 57.4025C131.044 75.6014 119.995 92.1372 106.066 106.066C92.1372 119.995 75.6013 131.044 57.4025 138.582C39.2037 146.12 19.6983 150 -6.55671e-06 150L-5.5732e-06 127.5C16.7435 127.5 33.3231 124.202 48.7921 117.795C64.2611 111.387 78.3166 101.996 90.1561 90.1561C101.996 78.3166 111.387 64.2612 117.795 48.7921C124.202 33.3231 127.5 16.7435 127.5 0H150Z" fill="#2E8C01"/>
</g>
<defs>
<filter id="filter0_b" x="-4.00001" y="-4" width="158" height="158" filterUnits="userSpaceOnUse" color-interpolation-filters="sRGB">
<feFlood flood-opacity="0" result="BackgroundImageFix"/>
<feGaussianBlur in="BackgroundImage" stdDeviation="2"/>
<feComposite in2="SourceAlpha" operator="in" result="effect1_backgroundBlur"/>
<feBlend mode="normal" in="SourceGraphic" in2="effect1_backgroundBlur" result="shape"/>
</filter>
</defs>
</svg>
