<svg width="52" height="58" viewBox="0 0 52 58" fill="none" xmlns="http://www.w3.org/2000/svg">
<g filter="url(#filter0_f)">
<path d="M39.8867 56.2812C39.3477 56.0938 38.1875 56 36.4062 56H16.2969C15.0781 56 14.0938 55.8125 13.3438 55.4375C12.6172 55.0391 12.2539 54.3242 12.2539 53.293C12.2539 52.5664 12.4414 51.9688 12.8164 51.5C13.707 51.7344 14.5508 51.8516 15.3477 51.8516C16.1445 51.8516 16.8945 51.7695 17.5977 51.6055C18.3008 51.4414 18.9688 51.1484 19.6016 50.7266C21.1016 49.7656 21.8984 48.3008 21.9922 46.332V7.23828H17.4219C14.0234 7.23828 11.7969 7.40234 10.7422 7.73047C9.71094 8.03516 8.92578 8.43359 8.38672 8.92578C7.87109 9.41797 7.44922 10.0859 7.12109 10.9297C6.53516 12.3828 6.07812 14.8906 5.75 18.4531C5.23438 18.5703 4.76562 18.6289 4.34375 18.6289C3.40625 18.6289 2.80859 18.3828 2.55078 17.8906C2.29297 17.3984 2.11719 16.8945 2.02344 16.3789C1.92969 15.8398 1.85938 15.2539 1.8125 14.6211C1.71875 13.3555 1.67188 12.0078 1.67188 10.5781C1.67188 6.66406 1.97656 4.17969 2.58594 3.125C3.19531 2 4.41406 1.4375 6.24219 1.4375C6.59375 1.4375 7.10938 1.47266 7.78906 1.54297C8.46875 1.61328 9.45312 1.69531 10.7422 1.78906C14.2344 2 18.418 2.10547 23.293 2.10547H29.2344C36.0312 2.10547 40.5781 2 42.875 1.78906C45.1719 1.55469 46.6016 1.4375 47.1641 1.4375C47.7266 1.4375 48.2422 1.51953 48.7109 1.68359C49.1797 1.84766 49.5547 2.08203 49.8359 2.38672C50.2812 2.90234 50.5039 3.54688 50.5039 4.32031C50.5039 5.49219 50.4688 6.42969 50.3984 7.13281C50.3281 7.83594 50.2461 8.66797 50.1523 9.62891C50.082 10.5898 49.9766 11.5859 49.8359 12.6172C49.5078 15.0547 49.0977 16.7305 48.6055 17.6445C48.1367 18.3008 47.5625 18.6289 46.8828 18.6289C46.2266 18.6289 45.6406 18.5703 45.125 18.4531L45.1602 16.2383C45.1602 14.1523 45.043 12.5117 44.8086 11.3164C44.5742 10.0977 44.082 9.19531 43.332 8.60938C42.582 8 41.5039 7.625 40.0977 7.48438C38.6914 7.32031 36.8164 7.23828 34.4727 7.23828H30.2539V47.7031C30.2539 49.3906 31.6016 50.5625 34.2969 51.2188C34.9531 51.3594 35.5742 51.4883 36.1602 51.6055C36.7695 51.7227 37.3555 51.8516 37.918 51.9922C38.4805 52.1094 38.9492 52.2617 39.3242 52.4492C40.0742 52.8242 40.4492 53.457 40.4492 54.3477C40.4492 55.168 40.2617 55.8125 39.8867 56.2812Z" fill="#7E7E7E" fill-opacity="0.38"/>
</g>
<defs>
<filter id="filter0_f" x="0.671875" y="0.4375" width="50.832" height="56.8438" filterUnits="userSpaceOnUse" color-interpolation-filters="sRGB">
<feFlood flood-opacity="0" result="BackgroundImageFix"/>
<feBlend mode="normal" in="SourceGraphic" in2="BackgroundImageFix" result="shape"/>
<feGaussianBlur stdDeviation="0.5" result="effect1_foregroundBlur"/>
</filter>
</defs>
</svg>
