<svg width="339" height="339" viewBox="0 0 339 339" fill="none" xmlns="http://www.w3.org/2000/svg">
<path d="M188.699 133L167.408 132C164.272 139 158 153.1 158 153.5C158 153.9 160.641 165 161.961 170.5L187.709 184L208.505 174.5L209 152L184.243 173L168.398 156L188.699 133Z" fill="#1E1D1D"/>
<path d="M142.289 236.815C159.725 245.251 179.585 247.242 198.349 242.435C217.113 237.628 233.569 226.335 244.802 210.555C256.036 194.775 261.32 175.528 259.72 156.224C258.119 136.921 249.737 118.807 236.058 105.093C222.38 91.3785 204.288 82.9491 184.988 81.2983C165.689 79.6476 146.428 84.882 130.619 96.074C114.81 107.266 103.474 123.693 98.6182 142.445C93.7626 161.196 95.7017 181.061 104.092 198.519L127.82 187.116C122.124 175.262 120.807 161.775 124.104 149.044C127.401 136.313 135.098 125.16 145.831 117.561C156.565 109.962 169.642 106.408 182.745 107.529C195.848 108.65 208.131 114.373 217.419 123.684C226.706 132.995 232.397 145.294 233.483 158.4C234.57 171.506 230.982 184.574 223.355 195.287C215.729 206.001 204.555 213.669 191.816 216.932C179.076 220.196 165.592 218.844 153.754 213.117L142.289 236.815Z" fill="#484848"/>
<path d="M159.5 68L158 85L197.5 85.5C197 81.1667 195.9 71.6 195.5 68C195.1 64.4 192 63.1667 190.5 63C183.667 62.8333 169 62.6 165 63C161 63.4 159.667 66.5 159.5 68Z" fill="#484848"/>
<path d="M232.727 82.6818L219.363 93.2952L246.189 122.293C248.988 118.947 255.171 111.564 257.507 108.796C259.843 106.028 258.604 102.93 257.692 101.728C253.109 96.6559 243.183 85.8561 240.14 83.2298C237.096 80.6036 233.93 81.7702 232.727 82.6818Z" fill="#484848"/>
<path d="M272.506 144.522L255.5 143.094L255.168 182.596C259.499 182.078 269.061 180.937 272.659 180.522C276.257 180.107 277.478 177.001 277.638 175.501C277.775 168.667 277.946 153.999 277.53 150.001C277.113 146.003 274.007 144.682 272.506 144.522Z" fill="#484848"/>
<path d="M258.284 217.466L247.36 204.355L219 231.853C222.41 234.573 229.936 240.581 232.758 242.852C235.58 245.122 238.648 243.811 239.829 242.871C244.792 238.171 255.356 227.994 257.91 224.89C260.464 221.786 259.224 218.647 258.284 217.466Z" fill="#484848"/>
<path d="M196.189 258.515L197.503 241.5L158 241.433C158.547 245.76 159.752 255.314 160.192 258.91C160.631 262.505 163.744 263.705 165.246 263.855C172.081 263.947 186.749 264.019 190.745 263.575C194.74 263.132 196.039 260.017 196.189 258.515Z" fill="#484848"/>
<path d="M83.2354 182.454L100.269 183.499L99.7127 144C95.3943 144.616 85.8605 145.971 82.2725 146.467C78.6845 146.964 77.5345 150.095 77.408 151.599C77.4242 158.435 77.5832 173.102 78.0901 177.09C78.5969 181.078 81.7315 182.328 83.2354 182.454Z" fill="#484848"/>
<path d="M97.7557 108.592L108.733 121.659L136.982 94.0454C133.56 91.3392 126.01 85.3621 123.179 83.103C120.348 80.8439 117.285 82.1678 116.108 83.1121C111.164 87.8325 100.641 98.0519 98.0998 101.166C95.5582 104.281 96.8114 107.414 97.7557 108.592Z" fill="#484848"/>
<path d="M208.869 174.665C206.909 179.852 203.673 184.462 199.461 188.068C195.249 191.675 190.195 194.161 184.768 195.299C179.34 196.436 173.714 196.187 168.408 194.575C163.102 192.963 158.288 190.041 154.41 186.077C150.533 182.113 147.716 177.235 146.222 171.895C144.727 166.555 144.602 160.925 145.858 155.524C147.114 150.123 149.711 145.125 153.409 140.993C157.107 136.861 161.787 133.727 167.016 131.882L173.313 149.722C171.082 150.51 169.085 151.847 167.507 153.61C165.93 155.373 164.821 157.505 164.285 159.81C163.749 162.115 163.803 164.517 164.44 166.796C165.078 169.074 166.28 171.155 167.935 172.847C169.589 174.538 171.643 175.785 173.907 176.473C176.171 177.161 178.572 177.267 180.888 176.781C183.204 176.296 185.36 175.235 187.157 173.696C188.955 172.158 190.335 170.191 191.172 167.977L208.869 174.665Z" fill="#1E1D1D"/>
<path d="M73 241L147.5 175L167 192.5L97 270.5C92.3333 272.667 81 274.9 73 266.5C65 258.1 69.6667 246 73 241Z" fill="#1E1D1D"/>
</svg>
