<svg width="58" height="58" viewBox="0 0 58 58" fill="none" xmlns="http://www.w3.org/2000/svg">
<g filter="url(#filter0_f)">
<path d="M56.3164 6.60547C55.8242 6.37109 55.1445 6.25391 54.2773 6.25391C53.4102 6.25391 52.7539 6.44141 52.3086 6.81641C51.8867 7.16797 51.4883 7.67187 51.1133 8.32812C50.7383 8.98438 50.375 9.76953 50.0234 10.6836L35.5039 50.0938C33.9336 54.4766 31.3203 56.668 27.6641 56.668C26.5156 56.668 25.8125 56.3398 25.5547 55.6836L8.22266 11.5625C8.03516 11.0938 7.85938 10.5898 7.69531 10.0508C7.53125 9.48828 7.34375 8.94922 7.13281 8.43359C6.61719 7.23828 5.90234 6.5 4.98828 6.21875C4.44922 6.03125 3.96875 5.87891 3.54688 5.76172C3.14844 5.62109 2.82031 5.46875 2.5625 5.30469C2.02344 4.95312 1.75391 4.50781 1.75391 3.96875C1.75391 3.125 1.94141 2.41016 2.31641 1.82422C2.85547 2.01172 3.78125 2.10547 5.09375 2.10547H19.6484C21.2188 2.10547 22.2852 2.21094 22.8477 2.42188C23.9258 2.84375 24.4648 3.64063 24.4648 4.8125C24.4648 5.60938 24.2891 6.20703 23.9375 6.60547C23.4219 6.37109 22.4023 6.25391 20.8789 6.25391C18.1133 6.25391 16.7305 7.40234 16.7305 9.69922C16.7305 9.98047 16.8125 10.3906 16.9766 10.9297L17.3984 12.1602C17.5156 12.4648 17.6211 12.7344 17.7148 12.9688L30.3359 47.7031L43.3789 10.4023C43.5195 9.88672 43.5898 9.42969 43.5898 9.03125C43.5898 8.60938 43.4961 8.25781 43.3086 7.97656C43.1211 7.67187 42.875 7.41406 42.5703 7.20312C42.2422 6.96875 41.6562 6.76953 40.8125 6.60547C39.9688 6.41797 39.2656 6.25391 38.7031 6.11328C38.1641 5.97266 37.707 5.79688 37.332 5.58594C36.582 5.16406 36.1836 4.46094 36.1367 3.47656C36.1367 2.82031 36.2539 2.26953 36.4883 1.82422C37.0273 2.01172 38.1875 2.10547 39.9688 2.10547H52.168C55.3086 2.10547 56.8789 3.00781 56.8789 4.8125C56.8789 5.58594 56.6914 6.18359 56.3164 6.60547Z" fill="#7E7E7E" fill-opacity="0.38"/>
</g>
<defs>
<filter id="filter0_f" x="0.753906" y="0.824219" width="57.125" height="56.8438" filterUnits="userSpaceOnUse" color-interpolation-filters="sRGB">
<feFlood flood-opacity="0" result="BackgroundImageFix"/>
<feBlend mode="normal" in="SourceGraphic" in2="BackgroundImageFix" result="shape"/>
<feGaussianBlur stdDeviation="0.5" result="effect1_foregroundBlur"/>
</filter>
</defs>
</svg>
