<svg width="339" height="339" viewBox="0 0 339 339" fill="none" xmlns="http://www.w3.org/2000/svg">
<circle cx="169.5" cy="87.5" r="36.5" fill="#484848"/>
<path d="M234.5 171.5H105.5C105.5 159.5 125 129.5 151 128C177 126.5 193.5 127.5 209 135C221.4 141 231.167 161.833 234.5 171.5Z" fill="#484848"/>
<path d="M110 234L99.5 183.5C90.5 211.5 90.5 219 96 226.5C100.4 232.5 107.167 234 110 234Z" fill="#484848"/>
<path d="M228.5 237.5L239.5 183.5C246.5 202.5 249 217.5 245 224.5C241.8 230.1 232.667 235.5 228.5 237.5Z" fill="#484848"/>
<path d="M299.5 233H224C226.667 220.167 232.4 192.6 234 185C235.6 177.4 231.667 176.167 229.5 176.5C191.833 176.333 115.1 176.1 109.5 176.5C103.9 176.9 103.833 180.667 104.5 182.5L114.5 233H39.5V252H299.5V233Z" fill="black"/>
</svg>
